<svg width="512" height="512" viewBox="0 0 512 512" fill="none" xmlns="http://www.w3.org/2000/svg">
<rect width="512" height="512" fill="black"/>
<path d="M489.952 284.881H383.434C367.568 284.881 354.655 272.021 354.655 256.22C354.655 240.42 367.568 227.56 383.434 227.56H489.952V214.724H383.434C360.455 214.724 341.765 233.336 341.765 256.22C341.765 279.104 360.455 297.717 383.434 297.717H489.952V284.881Z" fill="white"/>
<path d="M156.993 214V277.646C156.993 281.636 153.735 284.881 149.728 284.881H42.1552C38.1476 284.881 34.89 281.636 34.89 277.646V214H22V277.646C22 288.708 31.0464 297.717 42.1552 297.717H149.728C160.837 297.717 169.883 288.708 169.883 277.646V214H156.993Z" fill="white"/>
<path d="M319.289 251.109C321.903 247.316 323.438 242.707 323.438 237.736C323.438 224.724 312.88 214.14 299.908 214.14H184.413L184.414 227.07H299.908C305.778 227.07 310.548 231.854 310.548 237.736C310.548 243.617 305.778 248.402 299.908 248.402L184.413 248.413V297.705H309.188C322.16 297.705 332.718 287.121 332.718 274.11V272.418C332.718 263.035 327.223 254.913 319.289 251.109ZM319.828 274.121C319.828 280.014 315.059 284.787 309.188 284.787H197.303V261.752H309.188C315.059 261.752 319.828 266.536 319.828 272.418V274.121Z" fill="white"/>
</svg>
